{
  "accessors": [
    {
      "bufferView": 1,
      "componentType": 5126,
      "count": 43734,
      "max": [
        3.0,
        3.175426483154297,
        1.0
      ],
      "min": [
        -3.0,
        -2.020725965499878,
        -1.0
      ],
      "type": "VEC3"
    },
    {
      "bufferView": 1,
      "byteOffset": 524808,
      "componentType": 5126,
      "count": 43734,
      "max": [
        1.0,
        0.9842727780342102,
        0.9999932646751404
      ],
      "min": [
        -1.0,
        -0.9685380458831787,
        -0.9999932646751404
      ],
      "type": "VEC3"
    },
    {
      "bufferView": 0,
      "componentType": 5125,
      "count": 253260,
      "type": "SCALAR"
    }
  ],
  "asset": {
    "extras": {
      "author": "Michael Ostroff (https://sketchfab.com/MichaelOstroff)",
      "license": "CC-BY-4.0 (http://creativecommons.org/licenses/by/4.0/)",
      "source": "https://sketchfab.com/3d-models/penrose-triangle-small-62a70278a2ad4525b8826064dfeb9cba",
      "title": "Penrose Triangle-Small"
    },
    "generator": "Sketchfab-15.81.0",
    "version": "2.0"
  },
  "bufferViews": [
    {
      "buffer": 0,
      "byteLength": 1013040,
      "name": "floatBufferViews",
      "target": 34963
    },
    {
      "buffer": 0,
      "byteLength": 1049616,
      "byteOffset": 1013040,
      "byteStride": 12,
      "name": "floatBufferViews",
      "target": 34962
    }
  ],
  "buffers": [
    {
      "byteLength": 2062656,
      "uri": "scene.bin"
    }
  ],
  "materials": [
    {
      "doubleSided": true,
      "name": "Scene_-_Root",
      "pbrMetallicRoughness": {
        "roughnessFactor": 0.6
      }
    }
  ],
  "meshes": [
    {
      "name": "Object_0",
      "primitives": [
        {
          "attributes": {
            "NORMAL": 1,
            "POSITION": 0
          },
          "indices": 2,
          "material": 0,
          "mode": 4
        }
      ]
    }
  ],
  "nodes": [
    {
      "children": [
        1
      ],
      "matrix": [
        1.0,
        0.0,
        0.0,
        0.0,
        0.0,
        0.9534706473350526,
        -0.30148592591285683,
        0.0,
        0.0,
        0.30148592591285683,
        0.9534706473350526,
        0.0,
        0.0,
        0.0,
        0.0,
        1.0
      ],
      "name": "Sketchfab_model"
    },
    {
      "children": [
        2
      ],
      "name": "PenroseTriangeSmall.stl.cleaner.materialmerger.gles"
    },
    {
      "mesh": 0,
      "name": "Object_2"
    }
  ],
  "scene": 0,
  "scenes": [
    {
      "name": "Sketchfab_Scene",
      "nodes": [
        0
      ]
    }
  ]
}
